<svg width="56" height="114" viewBox="0 0 56 114" fill="none" xmlns="http://www.w3.org/2000/svg">
<path d="M27.5625 3.25L48.9375 21L41.0625 43.5938C45.1577 47.2838 47.75 52.6197 47.75 58.5625C47.75 65.4029 44.3089 71.4531 39.0938 75.0938C46.6352 75.7298 51.8125 76.9539 51.8125 78.375C51.8125 80.0506 44.6563 81.4259 34.8438 81.9062C36.518 102.525 52.5625 85.6137 52.5625 105.094V111.062H2.62503V105.094C2.62503 85.6202 18.6606 102.475 20.3438 81.9062C10.5151 81.4274 3.31253 80.0524 3.31253 78.375C3.31253 76.9539 8.52107 75.7298 16.0625 75.0938C10.8358 71.4572 7.43753 65.4111 7.43753 58.5625C7.43753 52.6355 9.98631 47.314 14.0625 43.625L6.18753 21L27.5625 3.25ZM27.5938 16.6875C26.9705 16.6875 26.4688 17.1892 26.4688 17.8125V23.25H20.8125C20.1893 23.25 19.6875 23.6681 19.6875 24.1875C19.6875 24.7069 20.1893 25.125 20.8125 25.125H26.4688V34.5625C26.4688 35.1858 26.9705 35.6875 27.5938 35.6875C28.217 35.6875 28.7188 35.1858 28.7188 34.5625V25.125H34.375C34.9983 25.125 35.5 24.7069 35.5 24.1875C35.5 23.6681 34.9983 23.25 34.375 23.25H28.7188V17.8125C28.7188 17.1892 28.217 16.6875 27.5938 16.6875Z" fill="#404040" stroke="#919191" stroke-width="5" stroke-linecap="round" stroke-linejoin="round"/>
</svg>
