<svg width="55" height="148" viewBox="0 0 55 148" fill="none" xmlns="http://www.w3.org/2000/svg">
<path d="M30.4375 2.5V13.375H43.8438V20.625H30.4375V34L48.5312 43.2862L42.0312 58.625C45.4987 62.2457 47.625 67.1567 47.625 72.5625C47.625 80.0628 43.5204 86.5941 37.4375 90.0625C46.1335 90.8778 52.2188 92.7285 52.2188 94.875C52.2188 97.1994 45.0801 99.1515 35.2188 99.8438C38.3676 118.127 52.4375 120.839 52.4375 139.094V145.062H2.5L2.53125 139.094C2.53124 120.691 16.8185 119.5 19.8125 99.8438C9.90214 99.1575 2.71875 97.2068 2.71875 94.875C2.71875 92.7259 8.81835 90.8763 17.5312 90.0625C11.4355 86.5994 7.3125 80.0718 7.3125 72.5625C7.3125 67.4098 9.25331 62.7209 12.4375 59.1562L5.40625 43.2862L23.5 34V20.625H10.0938V13.375H23.5V2.5H30.4375Z" fill="#404040" stroke="#919191" stroke-width="5" stroke-linecap="round" stroke-linejoin="round"/>
</svg>
