<svg width="61" height="134" viewBox="0 0 61 134" fill="none" xmlns="http://www.w3.org/2000/svg">
<path d="M30.5451 2.84375L35.8889 22.6875L46.5451 15.4062L47.7951 32.125L58.0139 30.4375L47.6076 54.5938H47.2326C49.4066 57.8108 50.7014 61.7024 50.7014 65.875C50.7013 73.0311 46.9526 79.2701 41.3264 82.8438C49.4259 83.4587 55.0451 84.7378 55.0451 86.2188C55.0451 87.9051 47.7794 89.302 37.8264 89.7812C39.6777 111.77 55.5139 114.452 55.5139 125.094V131.062H5.57635L5.6076 125.094C5.60759 115.352 21.4349 112.17 23.2639 89.7812C13.3026 89.3027 6.01386 87.9059 6.01385 86.2188C6.01385 84.7378 11.633 83.4587 19.7326 82.8438C14.1153 79.2707 10.3889 73.0237 10.3889 65.875C10.3889 61.7024 11.6524 57.8108 13.8264 54.5938H13.4514L3.0451 30.4375L13.2639 32.125L14.5451 15.4062L25.2014 22.6875L30.5451 2.84375Z" fill="#404040" stroke="#919191" stroke-width="5" stroke-linecap="round" stroke-linejoin="round"/>
</svg>
