<svg width="56" height="113" viewBox="0 0 56 113" fill="none" xmlns="http://www.w3.org/2000/svg">
<path d="M28.1943 2.5L6.81926 20.25L14.6943 42.8438C10.5991 46.5338 8.00676 51.8697 8.00676 57.8125C8.00676 64.6529 11.4479 70.7031 16.663 74.3438C9.12155 74.9798 3.94426 76.2039 3.94426 77.625C3.94426 79.3006 11.1005 80.6759 20.913 81.1562C19.2388 101.775 3.19426 84.8637 3.19426 104.344V110.312H53.1318V104.344C53.1318 84.8702 37.0962 101.725 35.413 81.1562C45.2416 80.6774 52.4443 79.3024 52.4443 77.625C52.4443 76.2039 47.2357 74.9798 39.6943 74.3438C44.921 70.7072 48.3193 64.6611 48.3193 57.8125C48.3193 51.8855 45.7705 46.564 41.6943 42.875L49.5693 20.25L28.1943 2.5ZM28.163 15.9375C28.7863 15.9375 29.288 16.4392 29.288 17.0625V22.5H34.9443C35.5675 22.5 36.0693 22.9181 36.0693 23.4375C36.0693 23.9569 35.5675 24.375 34.9443 24.375H29.288V33.8125C29.288 34.4358 28.7863 34.9375 28.163 34.9375C27.5398 34.9375 27.038 34.4358 27.038 33.8125V24.375H21.3818C20.7585 24.375 20.2568 23.9569 20.2568 23.4375C20.2568 22.9181 20.7585 22.5 21.3818 22.5H27.038V17.0625C27.038 16.4392 27.5398 15.9375 28.163 15.9375Z" fill="#BABABA" stroke="#DEDEDE" stroke-width="5" stroke-linecap="round" stroke-linejoin="round"/>
</svg>
