<svg width="56" height="148" viewBox="0 0 56 148" fill="none" xmlns="http://www.w3.org/2000/svg">
<path d="M25.3193 2.5V13.375H11.913V20.625H25.3193V34L7.22552 43.2862L13.7255 58.625C10.2581 62.2457 8.13177 67.1567 8.13177 72.5625C8.13178 80.0628 12.2364 86.5941 18.3193 90.0625C9.62327 90.8778 3.53802 92.7285 3.53802 94.875C3.53802 97.1994 10.6766 99.1515 20.538 99.8438C17.3891 118.127 3.31927 120.839 3.31927 139.094V145.062H53.2568L53.2255 139.094C53.2255 120.691 38.9383 119.5 35.9443 99.8438C45.8546 99.1575 53.038 97.2068 53.038 94.875C53.038 92.7259 46.9384 90.8763 38.2255 90.0625C44.3212 86.5994 48.4443 80.0718 48.4443 72.5625C48.4443 67.4098 46.5035 62.7209 43.3193 59.1562L50.3505 43.2862L32.2568 34V20.625H45.663V13.375H32.2568V2.5H25.3193Z" fill="#BABABA" stroke="#DEDEDE" stroke-width="5" stroke-linecap="round" stroke-linejoin="round"/>
</svg>
