<svg width="61" height="134" viewBox="0 0 61 134" fill="none" xmlns="http://www.w3.org/2000/svg">
<path d="M30.2117 2.5L24.8679 22.3438L14.2117 15.0625L12.9617 31.7812L2.74292 30.0938L13.1492 54.25H13.5242C11.3502 57.4671 10.0554 61.3586 10.0554 65.5312C10.0554 72.6874 13.8042 78.9264 19.4304 82.5C11.3309 83.115 5.71166 84.394 5.71167 85.875C5.71167 87.5613 12.9774 88.9582 22.9304 89.4375C21.0791 111.426 5.24292 114.108 5.24292 124.75V130.719H55.1804L55.1492 124.75C55.1492 115.008 39.3218 111.826 37.4929 89.4375C47.4542 88.959 54.7429 87.5622 54.7429 85.875C54.7429 84.394 49.1237 83.115 41.0242 82.5C46.6415 78.9269 50.3679 72.6799 50.3679 65.5312C50.3679 61.3586 49.1044 57.4671 46.9304 54.25H47.3054L57.7117 30.0938L47.4929 31.7812L46.2117 15.0625L35.5554 22.3438L30.2117 2.5Z" fill="#BABABA" stroke="#DEDEDE" stroke-width="5" stroke-linecap="round" stroke-linejoin="round"/>
</svg>
